<?xml version="1.0" encoding="utf-8"?>
<!-- Generator: Adobe Illustrator 16.0.3, SVG Export Plug-In . SVG Version: 6.00 Build 0)  -->
<!DOCTYPE svg PUBLIC "-//W3C//DTD SVG 1.1//EN" "http://www.w3.org/Graphics/SVG/1.1/DTD/svg11.dtd">
<svg version="1.1" id="Layer_1" xmlns="http://www.w3.org/2000/svg" xmlns:xlink="http://www.w3.org/1999/xlink" x="0px" y="0px"
	 width="32px" height="32px" viewBox="0 0 32 32" enable-background="new 0 0 32 32" xml:space="preserve">
<path fill="#FFFFFF" d="M20.87,6.52h-9.74c-0.9,0-1.64,0.73-1.64,1.64v13.59c0,0.9,0.73,1.64,1.64,1.64h9.74
	c0.9,0,1.64-0.74,1.64-1.64V8.16C22.51,7.25,21.77,6.52,20.87,6.52z M14.03,20.89c0,0.15-0.12,0.28-0.28,0.28H12.2
	c-0.16,0-0.28-0.12-0.28-0.28v-1.24c0-0.15,0.13-0.28,0.28-0.28h1.56c0.15,0,0.28,0.13,0.28,0.28V20.89z M14.03,18.18
	c0,0.15-0.12,0.28-0.28,0.28H12.2c-0.16,0-0.28-0.12-0.28-0.28v-1.24c0-0.15,0.13-0.28,0.28-0.28h1.56c0.15,0,0.28,0.13,0.28,0.28
	V18.18z M14.03,15.47c0,0.15-0.12,0.28-0.28,0.28H12.2c-0.16,0-0.28-0.12-0.28-0.28v-1.24c0-0.15,0.13-0.28,0.28-0.28h1.56
	c0.15,0,0.28,0.13,0.28,0.28V15.47z M17.06,20.89c0,0.15-0.12,0.28-0.28,0.28h-1.55c-0.16,0-0.28-0.12-0.28-0.28v-1.24
	c0-0.15,0.13-0.28,0.28-0.28h1.55c0.15,0,0.28,0.13,0.28,0.28V20.89z M17.06,18.18c0,0.15-0.12,0.28-0.28,0.28h-1.55
	c-0.16,0-0.28-0.12-0.28-0.28v-1.24c0-0.15,0.13-0.28,0.28-0.28h1.55c0.15,0,0.28,0.13,0.28,0.28V18.18z M17.06,15.47
	c0,0.15-0.12,0.28-0.28,0.28h-1.55c-0.16,0-0.28-0.12-0.28-0.28v-1.24c0-0.15,0.13-0.28,0.28-0.28h1.55c0.15,0,0.28,0.13,0.28,0.28
	V15.47z M20.08,20.89c0,0.15-0.12,0.28-0.28,0.28h-1.56c-0.16,0-0.28-0.12-0.28-0.28v-1.24c0-0.15,0.13-0.28,0.28-0.28h1.56
	c0.15,0,0.28,0.13,0.28,0.28V20.89z M20.08,18.18c0,0.15-0.12,0.28-0.28,0.28h-1.56c-0.16,0-0.28-0.12-0.28-0.28v-1.24
	c0-0.15,0.13-0.28,0.28-0.28h1.56c0.15,0,0.28,0.13,0.28,0.28V18.18z M20.08,15.47c0,0.15-0.12,0.28-0.28,0.28h-1.56
	c-0.16,0-0.28-0.12-0.28-0.28v-1.24c0-0.15,0.13-0.28,0.28-0.28h1.56c0.15,0,0.28,0.13,0.28,0.28V15.47z M20.59,11.47
	c0,0.32-0.28,0.57-0.63,0.57h-7.93c-0.35,0-0.63-0.25-0.63-0.57V9c0-0.31,0.28-0.57,0.63-0.57h7.93c0.35,0,0.63,0.25,0.63,0.57
	V11.47z"/>
<g>
	<path fill="#FFFFFF" d="M16,0.95c8.3,0,15.05,6.75,15.05,15.05S24.3,31.05,16,31.05S0.95,24.3,0.95,16S7.7,0.95,16,0.95 M16,0
		C7.16,0,0,7.16,0,16c0,8.84,7.16,16,16,16s16-7.16,16-16C32,7.16,24.84,0,16,0L16,0z"/>
</g>
</svg>
